<svg id="svg" fill="#000000" stroke="#000000" width="200px" height="200px" version="1.1" viewBox="144 144 512 512" xmlns="http://www.w3.org/2000/svg">
    <g id="IconSvg_bgCarrier" stroke-width="0"></g>
    <g id="IconSvg_tracerCarrier" stroke-linecap="round" stroke-linejoin="round" stroke="#CCCCCC"></g>
     <g id="IconSvg_iconCarrier">
      <g xmlns="http://www.w3.org/2000/svg">
  <path d="m455.07 434.2c-5.1758 0-9.4453-4.2539-9.4453-9.4453 0-5.2344 4.2734-9.4453 9.4453-9.4453h33.293l15.637-39.953c1.8672-4.8633 7.3398-7.2461 12.203-5.3555s7.2305 7.3594 5.3711 12.242l-17.824 45.461c-1.2578 3.7773-4.7969 6.4922-8.9883 6.4922z"></path>
  <path d="m591.25 307.07c-1.3438-8.125-5.4727-15.289-11.27-20.41-5.8438-5.1758-13.527-8.3047-21.844-8.3047h-239.88c-8.3438 0-15.961 3.1289-21.844 8.3047-1.8477 1.6328-3.4648 3.4258-4.9375 5.4102l-12.656-32.293c-1.2188-3.7578-4.7812-6.4922-8.9336-6.4922h-51.844c-5.1953 0-9.4453 4.2305-9.4453 9.4453 0 5.2148 4.2539 9.4453 9.4453 9.4453h45.383c26.172 66.836 52.332 133.73 78.484 200.54 1.2578 3.7969 4.8008 6.4922 8.9922 6.4922h174.62c3.7773-0.019532 7.3203-2.2812 8.7969-5.9961l56.285-143.76c0.69141-1.5156 0.88672-3.0898 0.78125-4.7422zm-18.656 8.9922h-218.55c-5.2148 0-9.4453 4.2305-9.4453 9.4453 0 5.2148 4.2305 9.4453 9.4453 9.4453h214.12l-49.102 125.36-161.77 0.003906-53.488-136.64v-14.113c0.71094-3.4453 2.5391-6.5156 5.0781-8.7344 2.5391-2.2227 5.8047-3.582 9.3672-3.582h239.88c3.5352 0 6.8203 1.3594 9.3828 3.582 2.5195 2.2227 4.3867 5.2969 5.0781 8.7344z"></path>
  <path d="m491.08 488.68c-15.941 0-29.051 13.07-29.051 29.035 0 15.934 13.109 29.008 29.051 29.008s29.008-13.074 29.008-29.008c-0.003907-15.973-13.066-29.035-29.008-29.035zm0 39.141c-5.6289 0-10.156-4.5078-10.156-10.117 0-5.6289 4.5195-10.137 10.156-10.137 5.5859 0 10.117 4.5078 10.117 10.137-0.007812 5.6133-4.5273 10.117-10.117 10.117z"></path>
  <path d="m385.33 488.68c-15.941 0-29.031 13.113-29.031 29.035 0 15.895 13.09 29.008 29.031 29.008 15.879 0 29.035-13.113 29.035-29.008 0-15.934-13.148-29.035-29.035-29.035zm0 39.141c-5.5859 0-10.137-4.543-10.137-10.117 0-5.5703 4.543-10.137 10.137-10.137 5.5664 0 10.137 4.5586 10.137 10.137 0 5.5742-4.5625 10.117-10.137 10.117z"></path>
  <path d="m395.51 434.2c-5.1953 0-9.4453-4.2539-9.4453-9.4453 0-5.2344 4.2539-9.4453 9.4453-9.4453h19.879c5.2305 0 9.4453 4.2109 9.4453 9.4453 0 5.1953-4.2188 9.4453-9.4453 9.4453z"></path>
 </g>

      </g>
      </svg>