<svg id="svg" fill="#000000" stroke="#000000" width="200px" height="200px" version="1.1" viewBox="144 144 512 512" xmlns="http://www.w3.org/2000/svg">
    <g id="IconSvg_bgCarrier" stroke-width="0"></g>
    <g id="IconSvg_tracerCarrier" stroke-linecap="round" stroke-linejoin="round" stroke="#CCCCCC"></g>
     <g id="IconSvg_iconCarrier">
      <g xmlns="http://www.w3.org/2000/svg">
  <path d="m581.37 272.75h-362.74c-5.2148 0-9.4453 4.2305-9.4453 9.4453v235.61c0 5.2148 4.2305 9.4453 9.4453 9.4453h362.74c5.2148 0 9.4453-4.2305 9.4453-9.4453v-235.61c0-5.2148-4.2305-9.4453-9.4453-9.4453zm-9.4492 235.61h-343.85l0.003907-207.41 61.5 45.734c4.1719 3.0898 10.078 2.2227 13.164-1.9492 3.1094-4.1719 2.2227-10.078-1.9492-13.184l-53.688-39.91h305.79l-152.89 113.67-65.359-48.609c-4.1914-3.1094-10.098-2.207-13.184 1.9492-3.0898 4.1719-2.2227 10.078 1.9492 13.184l70.98 52.766c3.4648 2.5781 8.1484 2.4023 11.395-0.11719l166.14-123.54z"></path>
  <path d="m526.91 416.37v46.977h-41.672c-5.1875 0-9.4453 4.2305-9.4453 9.4453 0 5.2148 4.2578 9.4453 9.4453 9.4453h51.117c5.168 0 9.4453-4.2305 9.4453-9.4453v-56.422c0-5.1953-4.2773-9.4453-9.4453-9.4453-5.2148 0-9.4453 4.2539-9.4453 9.4453z"></path>
  <path d="m445.11 463.35h-28.184c-5.1953 0-9.4258 4.2305-9.4258 9.4453 0 5.2148 4.2305 9.4453 9.4258 9.4453h28.184c5.2344 0 9.4453-4.2305 9.4453-9.4453 0-5.2148-4.2109-9.4453-9.4453-9.4453z"></path>
 </g>

      </g>
      </svg>