<svg id="svg" fill="#000000" stroke="#000000" width="200px" height="200px" version="1.1" viewBox="144 144 512 512" xmlns="http://www.w3.org/2000/svg">
    <g id="IconSvg_bgCarrier" stroke-width="0"></g>
    <g id="IconSvg_tracerCarrier" stroke-linecap="round" stroke-linejoin="round" stroke="#CCCCCC"></g>
     <g id="IconSvg_iconCarrier">
      <path xmlns="http://www.w3.org/2000/svg" d="m384.21 465.56c4.3867 2.7773 5.707 8.6016 2.8906 13.008-2.7773 4.4102-8.6016 5.707-13.008 2.9336-12.316-7.8359-22.516-18.461-32.449-28.793-2.418-2.5391-4.8203-5.0391-8.168-8.3633l-0.49219-0.52734c-19.977-20.234-27.77-41.172-26.43-61.895 1.5352-23.062 14.445-45.145 34.441-65.141 5.9062-5.8828 8.8555-13.699 8.8555-21.512s-2.9531-15.645-8.8555-21.547l-21.785-21.785h-0.058594c-5.8438-5.8633-13.66-8.7969-21.492-8.7969l-0.003906-0.027344c-7.793 0-15.629 2.9336-21.492 8.7969v0.019532c-45.324 45.324-39.633 109.38-7.9297 166.91 12.656 22.93 29.402 44.812 48.75 64.176l0.45312 0.49219c19.211 19.148 40.953 35.719 63.762 48.297 57.484 31.684 121.5 37.371 166.83-7.9922 5.8633-5.8633 8.8164-13.68 8.8164-21.512 0-7.8125-2.9531-15.645-8.8164-21.492l-21.805-21.824-0.39453-0.41406c-5.8242-5.6484-13.48-8.4453-21.113-8.4453-7.8125 0-15.609 2.9531-21.512 8.8555l-0.51562 0.43359c-9.4062 9.3867-19.285 17.16-29.441 22.887l-0.71094 0.37109c-9.9414 5.4727-20.152 9.0742-30.465 10.352-5.1758 0.62891-9.8789-3.0469-10.508-8.2461-0.62891-5.1523 3.0664-9.8789 8.2266-10.508 7.9688-0.98438 15.859-3.7578 23.598-8.0312l0.64844-0.39453c8.6602-4.9023 17.16-11.613 25.387-19.758l0.43359-0.47266c9.5625-9.582 22.219-14.383 34.855-14.383 12.379 0 24.777 4.6445 34.324 13.875l0.52734 0.51563 21.824 21.824c9.5469 9.5469 14.348 22.238 14.348 34.855 0 12.656-4.8008 25.305-14.348 34.855-52.387 52.406-124.83 46.719-189.3 11.18-24.262-13.383-47.43-31.074-67.934-51.484l-0.49219-0.47266c-20.566-20.566-38.438-43.949-51.957-68.469-35.562-64.473-41.266-136.96 11.117-189.32h0.039062c9.5273-9.5469 22.176-14.309 34.793-14.309v-0.039063c12.637 0 25.305 4.7812 34.855 14.348h0.019531-0.019531l21.668 21.668 0.15625 0.13672 0.019531 0.039063c9.582 9.6016 14.383 22.238 14.383 34.832 0 12.637-4.8008 25.27-14.383 34.855-16.902 16.902-27.77 34.953-28.949 52.98-1.0234 15.445 5.1523 31.488 20.957 47.449l0.47266 0.43359c2.1875 2.168 5.2969 5.4102 8.3828 8.6406 9.1406 9.5039 18.508 19.262 28.996 25.938z"></path>

      </g>
      </svg>