<svg id="svg" fill="#000000" stroke="#000000" width="200px" height="200px" version="1.1" viewBox="144 144 512 512" xmlns="http://www.w3.org/2000/svg">
    <g id="IconSvg_bgCarrier" stroke-width="0"></g>
    <g id="IconSvg_tracerCarrier" stroke-linecap="round" stroke-linejoin="round" stroke="#CCCCCC"></g>
     <g id="IconSvg_iconCarrier">
      <g xmlns="http://www.w3.org/2000/svg">
  <path d="m348.99 446.46c-4.0547 3.2539-9.9766 2.6055-13.246-1.457-3.25-4.0352-2.6211-9.9922 1.4375-13.246l45.188-36.223c4.0547-3.2539 9.9961-2.6016 13.266 1.4375 3.2305 4.0547 2.6016 9.9766-1.457 13.238z"></path>
  <path d="m578.18 239.23-362.43 112.96c-7.4414 2.3242-8.7773 12.16-2.7969 16.59l79.805 63.938 13.203 120.2c0.94531 8.4648 11.77 11.16 16.809 4.7812l51.938-59.305 59.672 47.816c2.5391 2.0234 5.8008 2.5625 8.6797 1.6719 3.9336-1.2148 5.3672-4.1914 6.9922-7.5352l139.6-287.82c4.1133-7.5391-3.7227-15.863-11.477-13.301zm-141.22 284.93-73.781-59.164c-4.0352-3.2539-9.9766-2.6055-13.246 1.457-3.25 4.0352-2.6211 9.9688 1.4375 13.227l8.6406 6.9492-37.629 42.934-10.664-96.957 21.805-14.031c4.3867-2.8008 5.668-8.6641 2.8516-13.008-2.8164-4.3945-8.6406-5.6523-13.027-2.8516l-21.039 13.543-64.02-51.332 298.16-92.926-121.37 97.312c-4.0547 3.25-4.6836 9.1914-1.4375 13.246 3.25 4.0352 9.2109 4.6836 13.246 1.4375l127.73-102.4z"></path>
 </g>

      </g>
      </svg>